<!DOCTYPE svg PUBLIC '-//W3C//DTD SVG 1.1//EN' 'http://www.w3.org/Graphics/SVG/1.1/DTD/svg11.dtd'>
<svg width="792" version="1.1" xmlns="http://www.w3.org/2000/svg" height="591.667" viewBox="0 0 792 591.667" xmlns:xlink="http://www.w3.org/1999/xlink" style="enable-background:new 0 0 792 591.667">
<switch>
<g>
<g>
<polygon points="421.177,66.201 637.928,171.348 625.201,178.649 409.153,71.194    " style="fill:#eed69e"/>
<polygon points="102.507,198.557 421.177,66.201 431.757,71.333 109.886,205.935    " style="fill:#eed69e"/>
<polygon points="275.447,361.811 275.447,393.637 287.436,404.501 287.436,372.419    " style="fill:#c93"/>
<polygon points="283.677,424.711 287.241,462.351 299.033,473.989 298.044,437.909    " style="fill:#c93"/>
<polygon points="292.438,493.039 293.742,523.24 306.217,536.6 305.228,506    " style="fill:#c93"/>
<polygon points="164.755,215.547 383.3,121.542 381.977,91.103 161.527,183.63    " style="fill:#e1b070"/>
<polygon points="118.185,264.042 383.992,137.451 384.532,149.875 126.947,275.111    " style="fill:#eed69e"/>
<polygon points="202.389,271.123 385.706,176.882 384.744,148.735 178.629,249.776    " style="fill:#e1b070"/>
<polygon points="211.267,279.099 386.378,192.327 387.16,205.632 219.666,286.644    " style="fill:#eed69e"/>
<polygon points="240.795,305.627 387.972,228.995 387.16,205.632 219.666,286.644    " style="fill:#e1b070"/>
<polygon points="445.157,116.929 445.157,88.336 578.236,155.291 578.236,188.181    " style="fill:#e1b070"/>
<polygon points="445.157,134.553 566.628,197.728 556.766,203.287 445.157,145.057    " style="fill:#eed69e"/>
<polygon points="445.157,173.651 445.157,145.057 556.766,203.287 526.882,220.125    " style="fill:#e1b070"/>
<polygon points="445.157,188.181 567.829,255.755 561.315,259.628 445.157,196.054    " style="fill:#eed69e"/>
<polygon points="445.157,224.646 445.157,196.054 561.315,259.628 531.309,277.47    " style="fill:#e1b070"/>
<polygon points="445.157,88.336 419.706,76.371 381.977,91.103    " style="fill:#c93"/>
<polygon points="381.977,91.103 387.972,228.995 445.157,224.383 445.157,88.336    " style="fill:#b88537"/>
<polygon points="102.507,198.557 115.576,193.128 292.584,352.157 275.447,361.811    " style="fill:#e1b070"/>
<polygon points="107.117,234.528 102.507,198.557 275.447,361.811 275.447,393.637    " style="fill:#eed69e"/>
<polygon points="118.185,264.042 130.83,256.943 299.16,415.505 283.677,424.711    " style="fill:#e1b070"/>
<polygon points="125.062,301.401 118.185,264.042 283.677,424.711 287.241,462.351    " style="fill:#eed69e"/>
<polygon points="128.793,319.848 139.523,315.752 309.046,482.14 292.438,493.039    " style="fill:#e1b070"/>
<polygon points="135.815,352.157 128.793,319.848 292.438,493.039 293.742,523.24    " style="fill:#eed69e"/>
<polygon points="161.527,183.63 140.53,215.547 123.496,200.243    " style="fill:#c93"/>
<polygon points="167.174,239.485 161.527,183.63 140.53,215.547    " style="fill:#b88537"/>
<polygon points="578.236,155.291 577.337,191.694 612.09,172.02    " style="fill:#c93"/>
<polygon points="577.337,191.694 567.829,341.866 603.339,319.848 612.09,172.02    " style="fill:#b88537"/>
<polygon points="256.624,319.848 339.964,325.456 292.584,352.157    " style="fill:#b88537"/>
<polygon points="345.591,370.241 349.435,460.963 309.046,486.211 298.044,476.528 299.16,396.707    " style="fill:#c93"/>
<polygon points="301.664,273.934 240.795,305.627 256.624,319.848 339.964,325.456 342.921,389.485      346.013,457.889 570.344,310.711 570.344,302.15 531.309,277.47 445.157,224.383 387.972,228.995    " style="fill:#b07026"/>
<polygon points="275.447,361.811 624.77,164.964 637.928,171.348 287.436,372.419    " style="fill:#e1b070"/>
<polygon points="287.436,404.501 287.436,372.419 637.928,171.348 635.621,205.935    " style="fill:#eed69e"/>
<polygon points="283.677,424.711 616.712,226.687 628.505,233.609 298.044,437.909    " style="fill:#e1b070"/>
<polygon points="299.033,473.989 298.044,437.909 628.505,233.609 623.169,268.692    " style="fill:#eed69e"/>
<polygon points="292.438,493.039 607.027,286.644 619.94,291.713 305.228,506    " style="fill:#e1b070"/>
<polygon points="306.217,536.6 305.228,506 619.94,291.713 616.252,323.999    " style="fill:#eed69e"/>
<polygon points="299.16,397.816 287.436,404.501 299.16,415.505    " style="fill:#b88537"/>
</g>
</g>
</switch>
</svg>
