<svg id="svg" version="1.1" xmlns="http://www.w3.org/2000/svg" xmlns:xlink="http://www.w3.org/1999/xlink" width="400" height="400" viewBox="0, 0, 400,400"><g id="svgg"><path id="path0" d="M102.000 143.233 C 89.840 144.362,80.229 153.558,78.604 165.618 C 78.442 166.818,78.066 168.525,77.769 169.411 C 77.472 170.297,77.051 172.587,76.833 174.501 C 76.616 176.416,76.258 178.318,76.038 178.729 C 75.818 179.140,75.447 180.989,75.213 182.838 C 74.980 184.687,74.529 186.920,74.212 187.800 C 73.895 188.680,73.628 190.120,73.619 191.000 C 73.610 191.880,73.256 193.860,72.832 195.400 C 72.408 196.940,71.869 199.460,71.633 201.000 C 71.137 204.248,70.658 206.791,69.602 211.800 C 68.451 217.257,67.577 221.836,66.971 225.585 C 66.670 227.447,66.128 230.147,65.767 231.585 C 64.683 235.895,64.820 244.402,66.017 247.200 C 67.491 250.644,71.439 254.800,73.236 254.800 C 73.454 254.800,74.390 255.196,75.316 255.681 C 77.873 257.018,91.619 257.016,94.478 255.679 C 95.511 255.195,96.540 254.800,96.766 254.800 C 98.403 254.800,105.626 249.483,106.633 247.537 C 106.956 246.912,107.374 246.400,107.562 246.400 C 108.082 246.400,111.598 239.089,111.614 237.976 C 111.621 237.439,111.975 236.280,112.400 235.400 C 112.874 234.418,113.178 232.930,113.186 231.549 C 113.194 230.311,113.485 228.615,113.834 227.780 C 114.183 226.946,114.635 224.899,114.838 223.231 C 115.042 221.564,115.313 219.550,115.441 218.756 C 115.749 216.851,115.571 216.812,106.526 216.805 C 97.700 216.799,97.334 216.902,97.024 219.480 C 96.897 220.536,96.610 222.120,96.386 223.000 C 96.163 223.880,95.706 226.220,95.371 228.200 C 94.028 236.133,92.716 238.372,89.209 238.709 C 84.673 239.145,83.072 237.231,84.143 232.653 C 84.510 231.084,84.808 229.231,84.805 228.536 C 84.802 227.840,85.158 226.130,85.595 224.736 C 86.032 223.341,86.392 221.474,86.395 220.587 C 86.398 219.700,86.686 217.990,87.035 216.787 C 87.384 215.584,87.899 213.070,88.180 211.200 C 88.461 209.330,88.877 207.341,89.105 206.780 C 89.333 206.220,89.649 204.510,89.807 202.980 C 89.966 201.451,90.345 199.591,90.650 198.846 C 90.955 198.101,91.317 196.211,91.455 194.646 C 91.593 193.081,91.958 191.177,92.268 190.415 C 92.577 189.654,92.933 187.944,93.060 186.615 C 93.186 185.287,93.629 182.861,94.045 181.225 C 94.460 179.588,94.800 177.695,94.800 177.017 C 94.800 176.339,95.139 174.528,95.552 172.992 C 95.966 171.456,96.408 169.251,96.535 168.092 C 96.661 166.932,97.033 165.492,97.361 164.892 C 97.690 164.291,98.141 163.402,98.363 162.916 C 99.447 160.548,105.957 160.398,106.851 162.720 C 107.305 163.902,107.012 168.770,106.328 171.400 C 105.274 175.449,104.447 181.341,104.832 182.060 C 105.198 182.744,105.863 182.800,113.591 182.800 C 123.088 182.800,123.194 182.762,123.205 179.411 C 123.208 178.525,123.568 176.659,124.005 175.264 C 124.442 173.870,124.802 171.980,124.805 171.064 C 124.808 170.149,125.168 168.259,125.605 166.864 C 126.743 163.236,126.740 156.022,125.600 153.896 C 125.160 153.075,124.800 152.063,124.800 151.647 C 124.800 148.758,117.205 143.885,112.000 143.435 C 110.350 143.292,108.280 143.109,107.400 143.027 C 106.520 142.946,104.090 143.039,102.000 143.233 M154.843 143.276 C 152.240 143.499,150.042 143.925,148.964 144.416 C 148.018 144.847,147.051 145.200,146.816 145.200 C 144.430 145.200,135.200 153.656,135.200 155.842 C 135.200 156.061,134.984 156.456,134.719 156.721 C 133.580 157.860,130.409 168.768,130.395 171.593 C 130.393 172.147,130.121 173.590,129.793 174.800 C 129.464 176.010,128.923 178.772,128.591 180.938 C 128.259 183.103,127.825 185.180,127.626 185.552 C 127.426 185.924,127.079 187.881,126.854 189.900 C 126.628 191.919,126.247 193.939,126.007 194.388 C 125.766 194.837,125.470 196.418,125.348 197.902 C 125.226 199.386,124.783 201.636,124.363 202.902 C 123.943 204.167,123.600 206.096,123.600 207.187 C 123.600 208.278,123.240 210.084,122.800 211.200 C 122.360 212.316,122.000 213.910,122.000 214.742 C 122.000 215.574,121.644 217.592,121.209 219.227 C 120.775 220.862,120.412 222.740,120.405 223.400 C 120.397 224.060,120.113 225.590,119.774 226.800 C 115.609 241.650,118.368 251.684,127.642 255.416 C 131.667 257.037,143.984 257.202,147.351 255.681 C 148.424 255.197,149.486 254.800,149.711 254.800 C 152.061 254.800,160.124 248.116,161.369 245.135 C 161.691 244.366,162.234 243.504,162.577 243.219 C 162.920 242.935,163.201 242.319,163.203 241.851 C 163.204 241.383,163.563 240.460,164.000 239.800 C 164.437 239.140,164.796 238.189,164.797 237.687 C 164.799 237.185,165.080 236.105,165.422 235.287 C 165.764 234.469,166.213 232.450,166.421 230.800 C 166.628 229.150,167.052 226.900,167.363 225.800 C 167.888 223.947,168.301 221.775,169.837 212.800 C 170.157 210.930,170.593 208.860,170.807 208.200 C 171.020 207.540,171.373 205.592,171.591 203.872 C 171.809 202.151,172.260 199.940,172.594 198.958 C 172.927 197.976,173.200 196.413,173.200 195.485 C 173.200 194.557,173.560 192.539,174.000 191.000 C 174.440 189.461,174.800 187.354,174.800 186.316 C 174.800 185.279,175.134 183.568,175.543 182.515 C 175.952 181.462,176.405 179.281,176.549 177.669 C 176.693 176.057,177.056 174.257,177.355 173.669 C 177.655 173.081,178.025 171.340,178.179 169.800 C 178.332 168.260,178.715 166.112,179.029 165.027 C 180.274 160.727,179.290 153.537,176.994 150.153 C 173.150 144.488,166.131 142.309,154.843 143.276 M190.591 145.214 C 189.971 146.218,188.771 151.241,188.541 153.800 C 188.402 155.340,188.042 157.090,187.740 157.689 C 187.438 158.288,187.039 160.276,186.854 162.107 C 186.668 163.938,186.323 165.796,186.087 166.237 C 185.851 166.678,185.537 168.200,185.389 169.620 C 185.241 171.039,184.778 173.344,184.360 174.742 C 183.942 176.140,183.600 178.053,183.600 178.992 C 183.600 179.931,183.330 181.464,183.000 182.399 C 182.671 183.334,182.132 185.741,181.804 187.749 C 180.928 193.111,180.425 195.799,179.586 199.600 C 179.173 201.470,178.647 204.406,178.418 206.125 C 178.189 207.844,177.814 209.600,177.585 210.028 C 177.357 210.455,177.067 212.018,176.943 213.502 C 176.818 214.986,176.375 217.344,175.958 218.742 C 175.541 220.140,175.200 221.962,175.200 222.790 C 175.200 223.618,174.840 225.423,174.400 226.800 C 173.960 228.177,173.594 230.136,173.587 231.152 C 173.580 232.168,173.226 233.990,172.800 235.200 C 172.374 236.410,172.020 238.042,172.013 238.827 C 172.006 239.612,171.644 241.592,171.209 243.227 C 170.775 244.862,170.412 246.740,170.403 247.400 C 170.394 248.060,170.050 249.894,169.639 251.475 C 168.691 255.126,167.191 254.799,184.933 254.806 C 200.295 254.812,203.045 254.543,206.000 252.748 C 206.330 252.548,207.199 252.109,207.931 251.774 C 209.424 251.089,211.472 249.370,213.583 247.029 C 214.362 246.165,215.270 245.170,215.600 244.817 C 217.639 242.638,221.600 231.412,221.600 227.810 C 221.600 227.143,221.960 225.339,222.400 223.800 C 222.840 222.261,223.200 220.253,223.200 219.337 C 223.200 218.421,223.558 216.530,223.995 215.136 C 224.432 213.741,224.792 211.851,224.795 210.936 C 224.798 210.020,225.158 208.130,225.595 206.736 C 226.032 205.341,226.392 203.654,226.395 202.987 C 226.398 202.320,226.673 200.790,227.007 199.587 C 227.341 198.384,227.865 195.870,228.172 194.000 C 228.479 192.130,228.920 189.790,229.154 188.800 C 229.751 186.263,230.807 180.768,231.421 177.000 C 231.708 175.240,232.262 172.630,232.651 171.200 C 233.894 166.631,233.706 155.579,232.341 153.041 C 231.029 150.599,227.793 147.259,226.428 146.936 C 225.862 146.802,225.128 146.458,224.795 146.170 C 223.311 144.889,191.344 143.996,190.591 145.214 M245.063 145.394 C 244.399 146.059,243.600 149.328,243.600 151.384 C 243.600 152.124,243.242 153.870,242.805 155.264 C 242.368 156.659,242.008 158.421,242.005 159.181 C 242.002 159.940,241.657 162.100,241.237 163.981 C 240.006 169.499,239.148 173.953,238.574 177.800 C 238.279 179.780,237.767 182.120,237.436 183.000 C 237.106 183.880,236.827 185.449,236.818 186.486 C 236.808 187.523,236.532 189.162,236.204 190.127 C 235.876 191.092,235.411 193.299,235.170 195.030 C 234.930 196.762,234.576 198.471,234.385 198.828 C 234.194 199.185,233.846 201.022,233.611 202.910 C 233.377 204.798,232.918 207.099,232.592 208.022 C 232.267 208.945,232.000 210.229,232.000 210.875 C 232.000 211.521,231.651 213.703,231.224 215.725 C 229.454 224.107,229.095 225.972,228.572 229.504 C 228.270 231.542,227.851 233.531,227.641 233.924 C 227.430 234.317,227.071 236.160,226.843 238.020 C 226.614 239.879,226.151 242.384,225.814 243.587 C 225.476 244.790,225.200 246.506,225.200 247.401 C 225.200 248.296,224.830 250.081,224.378 251.367 C 223.060 255.116,221.212 254.820,245.234 254.704 L 266.490 254.600 267.197 252.315 C 267.586 251.059,268.028 248.989,268.180 247.715 C 268.332 246.442,268.714 244.384,269.028 243.142 C 269.343 241.901,269.600 240.056,269.600 239.042 L 269.600 237.200 258.476 237.200 C 244.939 237.200,245.770 237.518,246.419 232.586 C 246.678 230.614,247.129 228.280,247.420 227.400 C 247.712 226.520,248.066 224.630,248.208 223.200 C 248.351 221.770,248.712 219.790,249.011 218.800 C 249.311 217.810,249.670 215.920,249.809 214.600 C 250.439 208.640,250.114 208.800,261.600 208.800 C 272.891 208.800,273.190 208.661,273.198 203.426 C 273.199 202.560,273.569 200.537,274.019 198.931 C 274.554 197.025,274.797 195.142,274.719 193.506 L 274.600 191.000 265.232 190.892 C 253.519 190.758,254.055 191.147,255.733 184.000 C 256.589 180.354,257.526 175.588,258.172 171.600 C 258.818 167.611,259.848 163.592,260.355 163.085 C 260.551 162.889,265.637 162.746,271.656 162.767 C 284.365 162.813,284.448 162.795,284.863 159.895 C 285.011 158.859,285.402 157.153,285.731 156.105 C 286.061 155.057,286.440 152.998,286.573 151.529 C 286.707 150.061,287.092 148.200,287.428 147.394 C 288.560 144.686,289.488 144.800,266.380 144.800 C 248.583 144.800,245.573 144.884,245.063 145.394 M293.689 145.470 C 293.001 146.824,291.061 156.186,290.351 161.579 C 290.165 162.997,289.745 164.977,289.418 165.979 C 289.091 166.980,288.705 169.060,288.560 170.600 C 288.415 172.140,288.049 174.009,287.746 174.753 C 287.444 175.497,287.026 177.608,286.817 179.444 C 286.609 181.280,286.263 183.109,286.048 183.510 C 285.833 183.911,285.528 185.400,285.369 186.820 C 285.210 188.239,284.747 190.569,284.340 191.999 C 283.933 193.428,283.600 195.257,283.600 196.063 C 283.600 196.869,283.242 198.670,282.805 200.064 C 282.368 201.459,282.008 203.211,282.005 203.958 C 282.002 204.705,281.652 206.865,281.226 208.758 C 280.152 213.535,279.206 218.397,278.578 222.361 C 278.286 224.210,277.858 226.190,277.628 226.761 C 277.398 227.332,277.036 229.371,276.824 231.291 C 276.612 233.211,276.254 235.126,276.028 235.547 C 275.803 235.968,275.439 237.817,275.219 239.656 C 274.999 241.495,274.552 243.720,274.227 244.600 C 273.901 245.480,273.627 246.927,273.618 247.816 C 273.608 248.705,273.328 250.474,272.997 251.749 C 272.168 254.928,271.812 254.801,281.524 254.794 C 291.702 254.787,291.081 255.025,291.536 250.955 C 291.733 249.189,292.089 247.380,292.327 246.936 C 292.564 246.493,292.938 244.705,293.157 242.965 C 293.376 241.224,293.835 238.727,294.178 237.416 C 294.520 236.105,294.802 234.485,294.804 233.816 C 294.807 233.147,295.085 231.700,295.422 230.600 C 295.759 229.500,296.213 227.160,296.431 225.400 C 296.649 223.640,297.081 221.390,297.392 220.400 C 297.702 219.410,298.130 217.096,298.341 215.257 C 298.764 211.589,299.154 210.811,300.097 211.754 C 300.987 212.644,301.561 217.471,301.980 227.600 C 302.185 232.550,302.548 237.950,302.786 239.600 C 303.024 241.250,303.350 245.300,303.510 248.600 L 303.800 254.600 313.600 254.600 L 323.400 254.600 323.273 251.200 C 323.203 249.330,322.883 246.728,322.560 245.418 C 322.238 244.108,321.792 241.228,321.569 239.018 C 321.346 236.808,320.998 234.370,320.796 233.600 C 320.594 232.830,320.138 229.955,319.782 227.210 C 319.427 224.466,319.046 222.074,318.935 221.895 C 318.825 221.716,318.497 219.552,318.207 217.085 C 317.916 214.618,317.371 211.186,316.993 209.459 C 316.119 205.449,316.438 204.075,318.405 203.394 C 324.187 201.392,330.422 193.327,331.584 186.346 C 331.781 185.166,332.225 183.127,332.571 181.816 C 332.917 180.505,333.200 178.878,333.200 178.200 C 333.200 177.522,333.490 175.895,333.845 174.584 C 334.200 173.273,334.626 171.030,334.793 169.600 C 334.959 168.170,335.329 165.616,335.616 163.925 C 336.935 156.122,333.419 149.064,326.752 146.132 L 324.200 145.010 309.130 144.875 C 294.872 144.748,294.040 144.780,293.689 145.470 M158.303 161.403 C 160.498 161.844,161.043 164.705,159.794 169.213 C 159.460 170.416,158.939 173.020,158.635 175.000 C 158.332 176.980,157.907 179.050,157.691 179.600 C 157.476 180.150,157.177 181.590,157.026 182.800 C 156.876 184.010,156.420 186.620,156.013 188.600 C 155.605 190.580,154.912 194.090,154.473 196.400 C 154.034 198.710,153.380 202.040,153.021 203.800 C 152.661 205.560,152.194 208.350,151.981 210.000 C 151.769 211.650,151.326 213.797,150.997 214.771 C 150.669 215.745,150.400 217.191,150.400 217.984 C 150.400 218.777,150.115 220.410,149.767 221.613 C 149.418 222.816,148.897 225.442,148.608 227.450 C 148.318 229.457,147.904 231.437,147.687 231.850 C 147.470 232.262,147.169 233.347,147.018 234.260 C 146.014 240.323,136.800 240.587,136.800 234.552 C 136.800 233.354,137.059 231.755,137.375 230.999 C 137.691 230.243,138.078 228.314,138.236 226.714 C 138.394 225.114,138.743 223.263,139.013 222.602 C 139.283 221.941,139.629 220.320,139.783 219.000 C 139.937 217.680,140.408 215.261,140.831 213.625 C 141.254 211.988,141.608 210.008,141.618 209.225 C 141.627 208.441,141.892 207.080,142.206 206.200 C 142.521 205.320,142.879 203.790,143.002 202.800 C 143.246 200.850,144.396 194.736,145.598 189.000 C 146.014 187.020,146.469 184.343,146.611 183.052 C 146.753 181.760,147.102 180.046,147.385 179.242 C 147.668 178.439,148.025 176.616,148.177 175.191 C 148.330 173.766,148.700 171.790,149.000 170.800 C 149.300 169.810,149.664 168.058,149.809 166.908 C 149.954 165.757,150.390 164.407,150.777 163.908 C 151.164 163.408,151.567 162.730,151.673 162.400 C 151.868 161.790,155.307 160.780,156.400 161.013 C 156.730 161.083,157.586 161.258,158.303 161.403 M213.569 163.836 C 215.008 165.046,215.190 166.885,214.196 170.164 C 213.868 171.244,213.600 172.908,213.600 173.862 C 213.600 174.816,213.257 176.633,212.837 177.898 C 212.417 179.164,211.975 181.282,211.853 182.604 C 211.732 183.926,211.355 185.794,211.016 186.754 C 210.677 187.715,210.400 189.169,210.400 189.987 C 210.400 190.804,210.129 192.356,209.797 193.436 C 209.465 194.516,208.922 197.172,208.591 199.338 C 208.259 201.503,207.824 203.582,207.623 203.957 C 207.422 204.332,207.140 205.800,206.996 207.220 C 206.852 208.639,206.495 210.700,206.203 211.800 C 205.910 212.900,205.558 214.610,205.420 215.600 C 205.282 216.590,204.832 219.020,204.421 221.000 C 204.009 222.980,203.500 225.680,203.289 227.000 C 201.955 235.356,200.964 236.714,195.945 237.069 C 191.098 237.411,190.417 236.187,192.232 230.400 C 192.542 229.410,192.974 227.250,193.191 225.600 C 193.409 223.950,193.857 221.610,194.189 220.400 C 194.520 219.190,194.792 217.660,194.794 217.000 C 194.796 216.340,195.155 214.270,195.592 212.400 C 196.681 207.746,197.536 203.293,198.182 198.922 C 198.481 196.900,198.859 195.029,199.022 194.765 C 199.185 194.501,199.552 192.646,199.837 190.642 C 200.122 188.639,200.636 186.016,200.978 184.813 C 201.320 183.610,201.600 181.939,201.600 181.100 C 201.600 180.261,201.882 178.905,202.226 178.087 C 202.570 177.269,203.024 175.095,203.235 173.256 C 203.446 171.417,203.791 169.591,204.001 169.198 C 204.211 168.806,204.501 167.430,204.646 166.142 C 205.010 162.902,205.144 162.800,209.018 162.800 C 212.007 162.800,212.462 162.903,213.569 163.836 M315.171 163.385 C 317.364 164.519,317.240 166.991,314.362 179.515 C 313.943 181.338,313.600 183.485,313.600 184.287 C 313.600 187.687,310.664 190.354,306.542 190.698 C 303.252 190.972,302.958 190.470,304.026 186.402 C 304.452 184.781,304.795 182.992,304.790 182.427 C 304.784 181.862,305.133 179.870,305.565 178.000 C 306.455 174.150,307.515 168.803,307.999 165.723 C 308.178 164.580,308.442 163.455,308.586 163.223 C 308.979 162.587,313.860 162.707,315.171 163.385 " stroke="none" fill="#f7f7f7" fill-rule="evenodd"></path><path id="path1" d="M0.000 200.000 L 0.000 400.000 200.000 400.000 L 400.000 400.000 400.000 200.000 L 400.000 0.000 200.000 0.000 L 0.000 0.000 0.000 200.000 M112.000 143.435 C 117.205 143.885,124.800 148.758,124.800 151.647 C 124.800 152.063,125.160 153.075,125.600 153.896 C 126.740 156.022,126.743 163.236,125.605 166.864 C 125.168 168.259,124.808 170.149,124.805 171.064 C 124.802 171.980,124.442 173.870,124.005 175.264 C 123.568 176.659,123.208 178.525,123.205 179.411 C 123.194 182.762,123.088 182.800,113.591 182.800 C 105.863 182.800,105.198 182.744,104.832 182.060 C 104.447 181.341,105.274 175.449,106.328 171.400 C 107.012 168.770,107.305 163.902,106.851 162.720 C 105.957 160.398,99.447 160.548,98.363 162.916 C 98.141 163.402,97.690 164.291,97.361 164.892 C 97.033 165.492,96.661 166.932,96.535 168.092 C 96.408 169.251,95.966 171.456,95.552 172.992 C 95.139 174.528,94.800 176.339,94.800 177.017 C 94.800 177.695,94.460 179.588,94.045 181.225 C 93.629 182.861,93.186 185.287,93.060 186.615 C 92.933 187.944,92.577 189.654,92.268 190.415 C 91.958 191.177,91.593 193.081,91.455 194.646 C 91.317 196.211,90.955 198.101,90.650 198.846 C 90.345 199.591,89.966 201.451,89.807 202.980 C 89.649 204.510,89.333 206.220,89.105 206.780 C 88.877 207.341,88.461 209.330,88.180 211.200 C 87.899 213.070,87.384 215.584,87.035 216.787 C 86.686 217.990,86.398 219.700,86.395 220.587 C 86.392 221.474,86.032 223.341,85.595 224.736 C 85.158 226.130,84.802 227.840,84.805 228.536 C 84.808 229.231,84.510 231.084,84.143 232.653 C 83.072 237.231,84.673 239.145,89.209 238.709 C 92.716 238.372,94.028 236.133,95.371 228.200 C 95.706 226.220,96.163 223.880,96.386 223.000 C 96.610 222.120,96.897 220.536,97.024 219.480 C 97.334 216.902,97.700 216.799,106.526 216.805 C 115.571 216.812,115.749 216.851,115.441 218.756 C 115.313 219.550,115.042 221.564,114.838 223.231 C 114.635 224.899,114.183 226.946,113.834 227.780 C 113.485 228.615,113.194 230.311,113.186 231.549 C 113.178 232.930,112.874 234.418,112.400 235.400 C 111.975 236.280,111.621 237.439,111.614 237.976 C 111.598 239.089,108.082 246.400,107.562 246.400 C 107.374 246.400,106.956 246.912,106.633 247.537 C 105.626 249.483,98.403 254.800,96.766 254.800 C 96.540 254.800,95.511 255.195,94.478 255.679 C 91.619 257.016,77.873 257.018,75.316 255.681 C 74.390 255.196,73.454 254.800,73.236 254.800 C 71.439 254.800,67.491 250.644,66.017 247.200 C 64.820 244.402,64.683 235.895,65.767 231.585 C 66.128 230.147,66.670 227.447,66.971 225.585 C 67.577 221.836,68.451 217.257,69.602 211.800 C 70.658 206.791,71.137 204.248,71.633 201.000 C 71.869 199.460,72.408 196.940,72.832 195.400 C 73.256 193.860,73.610 191.880,73.619 191.000 C 73.628 190.120,73.895 188.680,74.212 187.800 C 74.529 186.920,74.980 184.687,75.213 182.838 C 75.447 180.989,75.818 179.140,76.038 178.729 C 76.258 178.318,76.616 176.416,76.833 174.501 C 77.051 172.587,77.472 170.297,77.769 169.411 C 78.066 168.525,78.442 166.818,78.604 165.618 C 80.468 151.784,93.291 141.725,107.400 143.027 C 108.280 143.109,110.350 143.292,112.000 143.435 M166.000 143.595 C 175.847 144.862,181.957 154.914,179.029 165.027 C 178.715 166.112,178.332 168.260,178.179 169.800 C 178.025 171.340,177.655 173.081,177.355 173.669 C 177.056 174.257,176.693 176.057,176.549 177.669 C 176.405 179.281,175.952 181.462,175.543 182.515 C 175.134 183.568,174.800 185.279,174.800 186.316 C 174.800 187.354,174.440 189.461,174.000 191.000 C 173.560 192.539,173.200 194.557,173.200 195.485 C 173.200 196.413,172.927 197.976,172.594 198.958 C 172.260 199.940,171.809 202.151,171.591 203.872 C 171.373 205.592,171.020 207.540,170.807 208.200 C 170.593 208.860,170.157 210.930,169.837 212.800 C 168.301 221.775,167.888 223.947,167.363 225.800 C 167.052 226.900,166.628 229.150,166.421 230.800 C 166.213 232.450,165.764 234.469,165.422 235.287 C 165.080 236.105,164.799 237.185,164.797 237.687 C 164.796 238.189,164.437 239.140,164.000 239.800 C 163.563 240.460,163.204 241.383,163.203 241.851 C 163.201 242.319,162.920 242.935,162.577 243.219 C 162.234 243.504,161.691 244.366,161.369 245.135 C 160.124 248.116,152.061 254.800,149.711 254.800 C 149.486 254.800,148.424 255.197,147.351 255.681 C 143.984 257.202,131.667 257.037,127.642 255.416 C 118.368 251.684,115.609 241.650,119.774 226.800 C 120.113 225.590,120.397 224.060,120.405 223.400 C 120.412 222.740,120.775 220.862,121.209 219.227 C 121.644 217.592,122.000 215.574,122.000 214.742 C 122.000 213.910,122.360 212.316,122.800 211.200 C 123.240 210.084,123.600 208.278,123.600 207.187 C 123.600 206.096,123.943 204.167,124.363 202.902 C 124.783 201.636,125.226 199.386,125.348 197.902 C 125.470 196.418,125.766 194.837,126.007 194.388 C 126.247 193.939,126.628 191.919,126.854 189.900 C 127.079 187.881,127.426 185.924,127.626 185.552 C 127.825 185.180,128.259 183.103,128.591 180.938 C 128.923 178.772,129.464 176.010,129.793 174.800 C 130.121 173.590,130.393 172.147,130.395 171.593 C 130.409 168.768,133.580 157.860,134.719 156.721 C 134.984 156.456,135.200 156.061,135.200 155.842 C 135.200 153.656,144.430 145.200,146.816 145.200 C 147.051 145.200,148.018 144.847,148.964 144.416 C 151.971 143.047,159.078 142.704,166.000 143.595 M221.595 145.227 C 223.022 145.459,224.462 145.883,224.795 146.170 C 225.128 146.458,225.862 146.802,226.428 146.936 C 227.793 147.259,231.029 150.599,232.341 153.041 C 233.706 155.579,233.894 166.631,232.651 171.200 C 232.262 172.630,231.708 175.240,231.421 177.000 C 230.807 180.768,229.751 186.263,229.154 188.800 C 228.920 189.790,228.479 192.130,228.172 194.000 C 227.865 195.870,227.341 198.384,227.007 199.587 C 226.673 200.790,226.398 202.320,226.395 202.987 C 226.392 203.654,226.032 205.341,225.595 206.736 C 225.158 208.130,224.798 210.020,224.795 210.936 C 224.792 211.851,224.432 213.741,223.995 215.136 C 223.558 216.530,223.200 218.421,223.200 219.337 C 223.200 220.253,222.840 222.261,222.400 223.800 C 221.960 225.339,221.600 227.143,221.600 227.810 C 221.600 231.412,217.639 242.638,215.600 244.817 C 215.270 245.170,214.362 246.165,213.583 247.029 C 211.472 249.370,209.424 251.089,207.931 251.774 C 207.199 252.109,206.330 252.548,206.000 252.748 C 203.045 254.543,200.295 254.812,184.933 254.806 C 167.191 254.799,168.691 255.126,169.639 251.475 C 170.050 249.894,170.394 248.060,170.403 247.400 C 170.412 246.740,170.775 244.862,171.209 243.227 C 171.644 241.592,172.006 239.612,172.013 238.827 C 172.020 238.042,172.374 236.410,172.800 235.200 C 173.226 233.990,173.580 232.168,173.587 231.152 C 173.594 230.136,173.960 228.177,174.400 226.800 C 174.840 225.423,175.200 223.618,175.200 222.790 C 175.200 221.962,175.541 220.140,175.958 218.742 C 176.375 217.344,176.818 214.986,176.943 213.502 C 177.067 212.018,177.357 210.455,177.585 210.028 C 177.814 209.600,178.189 207.844,178.418 206.125 C 178.647 204.406,179.173 201.470,179.586 199.600 C 180.425 195.799,180.928 193.111,181.804 187.749 C 182.132 185.741,182.671 183.334,183.000 182.399 C 183.330 181.464,183.600 179.931,183.600 178.992 C 183.600 178.053,183.942 176.140,184.360 174.742 C 184.778 173.344,185.241 171.039,185.389 169.620 C 185.537 168.200,185.851 166.678,186.087 166.237 C 186.323 165.796,186.668 163.938,186.854 162.107 C 187.039 160.276,187.438 158.288,187.740 157.689 C 188.042 157.090,188.402 155.340,188.541 153.800 C 188.771 151.241,189.971 146.218,190.591 145.214 C 190.938 144.654,218.131 144.665,221.595 145.227 M287.571 145.365 C 287.933 145.801,287.901 146.264,287.428 147.394 C 287.092 148.200,286.707 150.061,286.573 151.529 C 286.440 152.998,286.061 155.057,285.731 156.105 C 285.402 157.153,285.011 158.859,284.863 159.895 C 284.448 162.795,284.365 162.813,271.656 162.767 C 265.637 162.746,260.551 162.889,260.355 163.085 C 259.848 163.592,258.818 167.611,258.172 171.600 C 257.526 175.588,256.589 180.354,255.733 184.000 C 254.055 191.147,253.519 190.758,265.232 190.892 L 274.600 191.000 274.719 193.506 C 274.797 195.142,274.554 197.025,274.019 198.931 C 273.569 200.537,273.199 202.560,273.198 203.426 C 273.190 208.661,272.891 208.800,261.600 208.800 C 250.114 208.800,250.439 208.640,249.809 214.600 C 249.670 215.920,249.311 217.810,249.011 218.800 C 248.712 219.790,248.351 221.770,248.208 223.200 C 248.066 224.630,247.712 226.520,247.420 227.400 C 247.129 228.280,246.678 230.614,246.419 232.586 C 245.770 237.518,244.939 237.200,258.476 237.200 L 269.600 237.200 269.600 239.042 C 269.600 240.056,269.343 241.901,269.028 243.142 C 268.714 244.384,268.332 246.442,268.180 247.715 C 268.028 248.989,267.586 251.059,267.197 252.315 L 266.490 254.600 245.234 254.704 C 221.212 254.820,223.060 255.116,224.378 251.367 C 224.830 250.081,225.200 248.296,225.200 247.401 C 225.200 246.506,225.476 244.790,225.814 243.587 C 226.151 242.384,226.614 239.879,226.843 238.020 C 227.071 236.160,227.430 234.317,227.641 233.924 C 227.851 233.531,228.270 231.542,228.572 229.504 C 229.095 225.972,229.454 224.107,231.224 215.725 C 231.651 213.703,232.000 211.521,232.000 210.875 C 232.000 210.229,232.267 208.945,232.592 208.022 C 232.918 207.099,233.377 204.798,233.611 202.910 C 233.846 201.022,234.194 199.185,234.385 198.828 C 234.576 198.471,234.930 196.762,235.170 195.030 C 235.411 193.299,235.876 191.092,236.204 190.127 C 236.532 189.162,236.808 187.523,236.818 186.486 C 236.827 185.449,237.106 183.880,237.436 183.000 C 237.767 182.120,238.279 179.780,238.574 177.800 C 239.148 173.953,240.006 169.499,241.237 163.981 C 241.657 162.100,242.002 159.940,242.005 159.181 C 242.008 158.421,242.368 156.659,242.805 155.264 C 243.242 153.870,243.600 152.124,243.600 151.384 C 243.600 149.328,244.399 146.059,245.063 145.394 C 245.932 144.525,286.850 144.497,287.571 145.365 M326.752 146.132 C 333.419 149.064,336.935 156.122,335.616 163.925 C 335.329 165.616,334.959 168.170,334.793 169.600 C 334.626 171.030,334.200 173.273,333.845 174.584 C 333.490 175.895,333.200 177.522,333.200 178.200 C 333.200 178.878,332.917 180.505,332.571 181.816 C 332.225 183.127,331.781 185.166,331.584 186.346 C 330.422 193.327,324.187 201.392,318.405 203.394 C 316.438 204.075,316.119 205.449,316.993 209.459 C 317.371 211.186,317.916 214.618,318.207 217.085 C 318.497 219.552,318.825 221.716,318.935 221.895 C 319.046 222.074,319.427 224.466,319.782 227.210 C 320.138 229.955,320.594 232.830,320.796 233.600 C 320.998 234.370,321.346 236.808,321.569 239.018 C 321.792 241.228,322.238 244.108,322.560 245.418 C 322.883 246.728,323.203 249.330,323.273 251.200 L 323.400 254.600 313.600 254.600 L 303.800 254.600 303.510 248.600 C 303.350 245.300,303.024 241.250,302.786 239.600 C 302.548 237.950,302.185 232.550,301.980 227.600 C 301.561 217.471,300.987 212.644,300.097 211.754 C 299.154 210.811,298.764 211.589,298.341 215.257 C 298.130 217.096,297.702 219.410,297.392 220.400 C 297.081 221.390,296.649 223.640,296.431 225.400 C 296.213 227.160,295.759 229.500,295.422 230.600 C 295.085 231.700,294.807 233.147,294.804 233.816 C 294.802 234.485,294.520 236.105,294.178 237.416 C 293.835 238.727,293.376 241.224,293.157 242.965 C 292.938 244.705,292.564 246.493,292.327 246.936 C 292.089 247.380,291.733 249.189,291.536 250.955 C 291.081 255.025,291.702 254.787,281.524 254.794 C 271.812 254.801,272.168 254.928,272.997 251.749 C 273.328 250.474,273.608 248.705,273.618 247.816 C 273.627 246.927,273.901 245.480,274.227 244.600 C 274.552 243.720,274.999 241.495,275.219 239.656 C 275.439 237.817,275.803 235.968,276.028 235.547 C 276.254 235.126,276.612 233.211,276.824 231.291 C 277.036 229.371,277.398 227.332,277.628 226.761 C 277.858 226.190,278.286 224.210,278.578 222.361 C 279.206 218.397,280.152 213.535,281.226 208.758 C 281.652 206.865,282.002 204.705,282.005 203.958 C 282.008 203.211,282.368 201.459,282.805 200.064 C 283.242 198.670,283.600 196.869,283.600 196.063 C 283.600 195.257,283.933 193.428,284.340 191.999 C 284.747 190.569,285.210 188.239,285.369 186.820 C 285.528 185.400,285.833 183.911,286.048 183.510 C 286.263 183.109,286.609 181.280,286.817 179.444 C 287.026 177.608,287.444 175.497,287.746 174.753 C 288.049 174.009,288.415 172.140,288.560 170.600 C 288.705 169.060,289.091 166.980,289.418 165.979 C 289.745 164.977,290.165 162.997,290.351 161.579 C 291.061 156.186,293.001 146.824,293.689 145.470 C 294.040 144.780,294.872 144.748,309.130 144.875 L 324.200 145.010 326.752 146.132 M153.832 161.343 C 152.750 161.594,151.778 162.070,151.673 162.400 C 151.567 162.730,151.164 163.408,150.777 163.908 C 150.390 164.407,149.954 165.757,149.809 166.908 C 149.664 168.058,149.300 169.810,149.000 170.800 C 148.700 171.790,148.330 173.766,148.177 175.191 C 148.025 176.616,147.668 178.439,147.385 179.242 C 147.102 180.046,146.753 181.760,146.611 183.052 C 146.469 184.343,146.014 187.020,145.598 189.000 C 144.396 194.736,143.246 200.850,143.002 202.800 C 142.879 203.790,142.521 205.320,142.206 206.200 C 141.892 207.080,141.627 208.441,141.618 209.225 C 141.608 210.008,141.254 211.988,140.831 213.625 C 140.408 215.261,139.937 217.680,139.783 219.000 C 139.629 220.320,139.283 221.941,139.013 222.602 C 138.743 223.263,138.394 225.114,138.236 226.714 C 138.078 228.314,137.691 230.243,137.375 230.999 C 137.059 231.755,136.800 233.354,136.800 234.552 C 136.800 240.587,146.014 240.323,147.018 234.260 C 147.169 233.347,147.470 232.262,147.687 231.850 C 147.904 231.437,148.318 229.457,148.608 227.450 C 148.897 225.442,149.418 222.816,149.767 221.613 C 150.115 220.410,150.400 218.777,150.400 217.984 C 150.400 217.191,150.669 215.745,150.997 214.771 C 151.326 213.797,151.769 211.650,151.981 210.000 C 152.194 208.350,152.661 205.560,153.021 203.800 C 153.380 202.040,154.034 198.710,154.473 196.400 C 154.912 194.090,155.605 190.580,156.013 188.600 C 156.420 186.620,156.876 184.010,157.026 182.800 C 157.177 181.590,157.476 180.150,157.691 179.600 C 157.907 179.050,158.332 176.980,158.635 175.000 C 158.939 173.020,159.460 170.416,159.794 169.213 C 161.043 164.705,160.498 161.844,158.303 161.403 C 157.586 161.258,156.730 161.083,156.400 161.013 C 156.070 160.943,154.915 161.091,153.832 161.343 M205.303 163.300 C 205.087 163.575,204.791 164.854,204.646 166.142 C 204.501 167.430,204.211 168.806,204.001 169.198 C 203.791 169.591,203.446 171.417,203.235 173.256 C 203.024 175.095,202.570 177.269,202.226 178.087 C 201.882 178.905,201.600 180.261,201.600 181.100 C 201.600 181.939,201.320 183.610,200.978 184.813 C 200.636 186.016,200.122 188.639,199.837 190.642 C 199.552 192.646,199.185 194.501,199.022 194.765 C 198.859 195.029,198.481 196.900,198.182 198.922 C 197.536 203.293,196.681 207.746,195.592 212.400 C 195.155 214.270,194.796 216.340,194.794 217.000 C 194.792 217.660,194.520 219.190,194.189 220.400 C 193.857 221.610,193.409 223.950,193.191 225.600 C 192.974 227.250,192.542 229.410,192.232 230.400 C 190.417 236.187,191.098 237.411,195.945 237.069 C 200.964 236.714,201.955 235.356,203.289 227.000 C 203.500 225.680,204.009 222.980,204.421 221.000 C 204.832 219.020,205.282 216.590,205.420 215.600 C 205.558 214.610,205.910 212.900,206.203 211.800 C 206.495 210.700,206.852 208.639,206.996 207.220 C 207.140 205.800,207.422 204.332,207.623 203.957 C 207.824 203.582,208.259 201.503,208.591 199.338 C 208.922 197.172,209.465 194.516,209.797 193.436 C 210.129 192.356,210.400 190.804,210.400 189.987 C 210.400 189.169,210.677 187.715,211.016 186.754 C 211.355 185.794,211.732 183.926,211.853 182.604 C 211.975 181.282,212.417 179.164,212.837 177.898 C 213.257 176.633,213.600 174.816,213.600 173.862 C 213.600 172.908,213.868 171.244,214.196 170.164 C 215.836 164.755,214.462 162.800,209.018 162.800 C 206.839 162.800,205.562 162.972,205.303 163.300 M308.586 163.223 C 308.442 163.455,308.178 164.580,307.999 165.723 C 307.515 168.803,306.455 174.150,305.565 178.000 C 305.133 179.870,304.784 181.862,304.790 182.427 C 304.795 182.992,304.452 184.781,304.026 186.402 C 302.958 190.470,303.252 190.972,306.542 190.698 C 310.664 190.354,313.600 187.687,313.600 184.287 C 313.600 183.485,313.943 181.338,314.362 179.515 C 316.367 170.789,317.074 165.980,316.552 164.618 C 315.967 163.094,309.379 161.940,308.586 163.223 " stroke="none" fill="#191b1b" fill-rule="evenodd"></path></g></svg>